<svg xmlns="http://www.w3.org/2000/svg" viewBox="0 0 21 21">
  <defs>
    <style>
      .cls-1 {fill: #fff;} .cls-2 {fill: #fcb702;} .cls-3 {fill: #69a6c4;} .cls-4 {fill: #012e73;} .cls-5 {fill: #dd2f19;} .cls-6 {fill: #007e52;} .cls-7 {fill: #a53915;} 
    </style>
  </defs>
  <g id="Layer_2" data-name="Layer 2">
    <g id="Board">
      <rect class="cls-1" width="21" height="21" rx="5"/>
    </g>
    <polygon class="cls-2" points="7 2 7 7 6.99 7 2 2.01 2 2 7 2"/>
    <rect class="cls-3" x="8" y="2" width="5" height="5"/>
    <rect class="cls-4" x="14" y="2" width="5" height="5"/>
    <rect class="cls-5" x="2" y="8" width="5" height="5"/>
    <polygon class="cls-2" points="13 8 13 13 12.99 13 8 8.01 8 8 13 8"/>
    <rect class="cls-6" x="14" y="8" width="5" height="5"/>
    <rect class="cls-2" x="2" y="14" width="5" height="5"/>
    <rect class="cls-7" x="8" y="14" width="5" height="5"/>
    <polygon class="cls-2" points="19 14 19 19 18.99 19 14 14.01 14 14 19 14"/>
    <polygon class="cls-4" points="18.99 19 14 19 14 14.01 18.99 19"/>
    <polygon class="cls-4" points="12.99 13 8 13 8 8.01 12.99 13"/>
    <polygon class="cls-4" points="6.99 7 2 7 2 2.01 6.99 7"/>
  </g>
</svg>
