<svg xmlns="http://www.w3.org/2000/svg" viewBox="0 0 21 21">
  <g id="logo">
    <rect fill="white" width="21" height="21" rx="5"/>
    <polygon fill="#fcb702" points="7 2 7 7 6.99 7 2 2.01 2 2 7 2"/>
    <rect fill="#69a6c4" x="8" y="2" width="5" height="5"/>
    <rect fill="#012e73" x="14" y="2" width="5" height="5"/>
    <rect fill="#dd2f19" x="2" y="8" width="5" height="5"/>
    <polygon fill="#fcb702" points="13 8 13 13 12.99 13 8 8.01 8 8 13 8"/>
    <rect fill="#007e52" x="14" y="8" width="5" height="5"/>
    <rect fill="#fcb702" x="2" y="14" width="5" height="5"/>
    <rect fill="#a53915" x="8" y="14" width="5" height="5"/>
    <polygon fill="#fcb702" points="19 14 19 19 18.99 19 14 14.01 14 14 19 14"/>
    <polygon fill="#012e73" points="18.99 19 14 19 14 14.01 18.99 19"/>
    <polygon fill="#012e73" points="12.99 13 8 13 8 8.01 12.99 13"/>
    <polygon fill="#012e73" points="6.99 7 2 7 2 2.01 6.99 7"/>
  </g>
</svg>
